<svg width="242" height="242" viewBox="0 0 242 242" fill="none" xmlns="http://www.w3.org/2000/svg">
<circle cx="121" cy="121" r="121" fill="white"/>
<g clip-path="url(#clip0)">
<path d="M195.648 204.965C218.39 184.426 232.692 154.643 232.692 121.505C232.692 59.54 182.686 9.30768 121 9.30768C59.3141 9.30768 9.30771 59.54 9.30771 121.505C9.30771 178.344 51.3831 225.311 105.953 232.692C105.149 232.147 104.339 231.586 103.524 231.009C54.8785 196.611 58.1856 157.39 62.5594 138.101C63.3061 139.923 65.1197 143.566 66.3998 143.566C56.1587 111.675 62.1327 92.558 66.3998 86.9857H70.5603C66.9759 86.4713 65.4397 84.6281 65.1197 83.7709C64.1595 83.5565 61.0232 82.6135 56.1586 80.556C51.2941 78.4986 54.1317 76.0553 56.1586 75.0909C84.6418 85.3783 98.4033 95.0227 103.524 106.918C102.884 87.9501 94.8649 79.3235 91.0425 77.0197C87.8421 75.0909 85.8152 77.877 87.202 79.5916L79.8412 71.5546C96.227 58.4381 121.126 63.196 129.767 70.5901L125.286 74.7694L121.126 79.5916C121.766 77.3412 121.126 75.0293 119.206 76.0553C107.172 82.4849 104.804 99.3091 105.124 106.918C107.258 99.7378 119.078 84.4781 149.289 77.0197C149.182 79.9131 147.049 85.1211 139.368 86.6642H144.488C150.249 93.7368 151.849 113.026 151.529 116.883C151.209 120.741 150.249 124.278 150.249 123.313C150.249 122.542 148.115 121.063 147.049 120.42L146.089 121.063C165.291 138.294 187.587 183.109 196.334 203.362L195.648 204.965Z" fill="#333333"/>
<path d="M99.5085 113.207C100.789 110.314 104.309 110.957 104.309 110.957C104.309 110.957 107.829 110.314 109.11 113.207C110.39 116.1 109.368 119.649 108.149 123.494C107.166 126.598 104.309 130.889 104.309 130.889C104.309 130.889 101.452 126.598 100.469 123.495C99.2504 119.649 98.2283 116.1 99.5085 113.207Z" fill="#333333"/>
<path d="M115.895 138.155V139.44C108.747 139.548 94.6443 143.877 95.4124 160.337C96.1804 176.797 112.359 187.408 123.56 194.16L174.781 218.525L170.925 220.2C156.509 217.052 131.241 205.733 108.839 191.588C92.6611 181.373 90.7185 167.195 90.6118 162.266C90.2918 153.157 94.9003 135.583 115.895 138.155Z" fill="#333333"/>
</g>
<defs>
<clipPath id="clip0">
<rect width="223.385" height="223.385" fill="white" transform="translate(9.30771 9.30768)"/>
</clipPath>
</defs>
</svg>
